<svg width="18" height="18" viewBox="0 0 18 18" fill="none" xmlns="http://www.w3.org/2000/svg">
<g clip-path="url(#clip0_96_54488)">
<path d="M9.00017 5.95933C9.63102 5.95933 10.1424 5.44791 10.1424 4.81707C10.1424 4.18622 9.63102 3.6748 9.00017 3.6748C8.36933 3.6748 7.85791 4.18622 7.85791 4.81707C7.85791 5.44791 8.36933 5.95933 9.00017 5.95933Z" fill="#858D9D"/>
<path d="M14.9998 0.000732422H2.9998C1.33202 0.013916 -0.0101732 1.37492 -0.000188792 3.04273V12.1702C-0.0101732 13.8381 1.33192 15.1993 2.9998 15.2129H5.19204L8.00303 17.613C8.55983 18.1218 9.41065 18.1293 9.97628 17.6302L12.86 15.2122H14.9998C16.6677 15.1986 18.0098 13.8374 17.9998 12.1695V3.04273C18.0098 1.37492 16.6676 0.013916 14.9998 0.000732422ZM8.99981 2.28223C12.4611 2.37374 12.4603 7.51499 8.99981 7.60724C5.53857 7.51496 5.53931 2.37596 8.99981 2.28223ZM12.1865 12.9067C11.7852 13.0091 11.3768 12.7668 11.2744 12.3654C11.274 12.3636 11.2735 12.3618 11.2731 12.36C10.8892 11.1043 9.56003 10.3976 8.30435 10.7814C7.54849 11.0125 6.95688 11.6041 6.7258 12.36C6.621 12.7609 6.21101 13.001 5.81005 12.8962C5.40909 12.7914 5.16901 12.3814 5.27381 11.9805C5.85375 9.92246 7.99223 8.72423 10.0502 9.30417C11.3473 9.66969 12.361 10.6834 12.7266 11.9805C12.831 12.385 12.5901 12.7982 12.1865 12.9067Z" fill="#858D9D"/>
</g>
<defs>
<clipPath id="clip0_96_54488">
<rect width="18" height="18" fill="white"/>
</clipPath>
</defs>
</svg>
